<svg xmlns="http://www.w3.org/2000/svg" width="512" height="512" fill="none" aria-labelledby="icon_title icon_desc" viewBox="0 0 100 100"><title id="icon_title">Pluralscape icon</title><desc id="icon_desc">A constellation of connected nodes representing plural identities</desc><path stroke="url(#paint0_linear)" stroke-linecap="round" stroke-linejoin="round" stroke-width="2" d="M50 20 20 40l15 35h30l15-35Z"></path><path stroke="url(#paint1_linear)" stroke-linecap="round" stroke-width="2" d="M50 20v30L35 75"></path><path stroke="url(#paint2_linear)" stroke-linecap="round" stroke-width="2" d="m50 50 15 25"></path><path stroke="url(#paint3_linear)" stroke-linecap="round" stroke-width="2" d="m20 40 30 10 30-10"></path><circle cx="50" cy="20" r="5" fill="#e8e4f0"></circle><circle cx="20" cy="40" r="4" fill="#b8a9c9"></circle><circle cx="80" cy="40" r="4" fill="#7ecbc0"></circle><circle cx="35" cy="75" r="3" fill="#e8e4f0"></circle><circle cx="65" cy="75" r="3" fill="#b8a9c9"></circle><circle cx="50" cy="50" r="2.5" fill="#7ecbc0"></circle><defs><linearGradient id="paint0_linear" x1="20" x2="80" y1="20" y2="75" gradientUnits="userSpaceOnUse"><stop stop-color="#b8a9c9"></stop><stop offset="1" stop-color="#7ecbc0"></stop></linearGradient><linearGradient id="paint1_linear" x1="50" x2="35" y1="20" y2="75" gradientUnits="userSpaceOnUse"><stop stop-color="#e8e4f0"></stop><stop offset="1" stop-color="#b8a9c9"></stop></linearGradient><linearGradient id="paint2_linear" x1="50" x2="65" y1="50" y2="75" gradientUnits="userSpaceOnUse"><stop stop-color="#b8a9c9"></stop><stop offset="1" stop-color="#7ecbc0"></stop></linearGradient><linearGradient id="paint3_linear" x1="20" x2="80" y1="40" y2="40" gradientUnits="userSpaceOnUse"><stop stop-color="#b8a9c9"></stop><stop offset="1" stop-color="#7ecbc0"></stop></linearGradient></defs></svg>