<svg xmlns="http://www.w3.org/2000/svg" width="800" height="260" fill="none" aria-labelledby="title" viewBox="0 0 400 130"><title id="title">Pluralscape</title><desc>A constellation of connected nodes representing plural identities</desc><g transform="matrix(.6 0 0 .6 170 10)"><path stroke="url(#wml_paint0)" stroke-linecap="round" stroke-linejoin="round" stroke-width="2" d="M50 20 20 40l15 35h30l15-35Z"/><path stroke="url(#wml_paint1)" stroke-linecap="round" stroke-width="2" d="M50 20v30L35 75"/><path stroke="url(#wml_paint2)" stroke-linecap="round" stroke-width="2" d="m50 50 15 25"/><path stroke="url(#wml_paint3)" stroke-linecap="round" stroke-width="2" d="m20 40 30 10 30-10"/><circle cx="50" cy="20" r="5" fill="#0f0f23"/><circle cx="20" cy="40" r="4" fill="#6b5d87"/><circle cx="80" cy="40" r="4" fill="#2d7a72"/><circle cx="35" cy="75" r="3" fill="#0f0f23"/><circle cx="65" cy="75" r="3" fill="#6b5d87"/><circle cx="50" cy="50" r="2.5" fill="#2d7a72"/></g><path fill="#0f0f23" d="M101.33 112h-2.52V86.8h7.92q2.92 0 4.83.95 1.9.96 2.8 2.6.9 1.63.9 3.72 0 2.05-.9 3.71t-2.79 2.63-4.84.97h-5.4zm0-23.08v10.3h5.4q3.21 0 4.57-1.39 1.37-1.38 1.37-3.76 0-2.45-1.37-3.8-1.36-1.35-4.57-1.35zM123.74 112h-2.52V86.08h2.52zm13.67.43q-2.05 0-3.62-.81t-2.43-2.48q-.86-1.68-.86-4.3V93.86h2.52v10.69q0 2.88 1.27 4.28 1.28 1.41 3.55 1.41 1.62 0 2.9-.76t2.01-2.25q.74-1.49.74-3.65v-9.72h2.52V112h-2.3l-.15-3.24q-.86 1.76-2.5 2.72-1.64.95-3.65.95m18.23-.43h-2.52V93.86h2.31l.18 3.49q.57-1.26 1.55-2.13.97-.86 2.34-1.33 1.36-.47 3.09-.47v2.63h-.97q-1.15 0-2.23.31-1.08.3-1.91 1.02t-1.33 1.95q-.51 1.22-.51 3.06zm18.28.43q-2.2 0-3.66-.79t-2.16-2.05-.7-2.77q0-1.88.95-3.17.96-1.3 2.69-1.95 1.72-.64 4.03-.64h4.89q0-1.77-.54-2.99-.54-1.23-1.58-1.86t-2.63-.63q-1.83 0-3.17.94-1.33.94-1.65 2.74h-2.63q.22-1.91 1.31-3.21 1.1-1.29 2.72-1.96t3.42-.67q2.52 0 4.11.96 1.58.95 2.37 2.61.79 1.65.79 3.81V112h-2.3l-.14-3.31q-.33.75-.89 1.44-.55.68-1.29 1.19-.74.5-1.71.81-.97.3-2.23.3m.28-2.19q1.34 0 2.4-.56t1.82-1.46q.75-.9 1.15-2.05.39-1.15.39-2.34v-.65h-4.71q-1.91 0-3.06.47t-1.66 1.26q-.5.79-.5 1.83 0 1.05.48 1.82.49.78 1.43 1.23.93.45 2.26.45m17.56 1.76h-2.52V86.08h2.52zm13.77.43q-2.16 0-3.8-.72t-2.63-2.07-1.2-3.22h2.62q.18 1.04.81 1.91.63.86 1.71 1.38 1.08.53 2.56.53 1.37 0 2.25-.42.88-.41 1.33-1.11.45-.71.45-1.57 0-1.19-.56-1.85-.55-.67-1.6-.99-1.04-.33-2.52-.62-1.22-.21-2.34-.57-1.11-.36-2-.94-.88-.57-1.38-1.46-.51-.88-.51-2.07 0-1.54.78-2.71.77-1.17 2.21-1.84t3.39-.67q2.77 0 4.53 1.39 1.77 1.39 2.05 4.05h-2.52q-.14-1.48-1.22-2.34t-2.92-.86q-1.8 0-2.75.73-.95.74-.95 2 0 .79.5 1.37t1.49.99 2.43.7q1.73.33 3.19.85t2.38 1.58q.91 1.06.91 3.01.04 1.62-.79 2.88t-2.32 1.96-3.58.7m21.15 0q-2.52 0-4.5-1.19-1.98-1.18-3.13-3.33-1.15-2.14-1.15-4.95 0-2.91 1.15-5.02 1.15-2.1 3.15-3.31t4.48-1.21q3.17 0 5.27 1.64 2.11 1.64 2.69 4.34h-2.52q-.4-1.8-1.89-2.79-1.5-.99-3.59-.99-1.62 0-3.02.81t-2.27 2.43q-.86 1.62-.86 4.1 0 1.84.5 3.21.51 1.37 1.37 2.28.86.92 1.98 1.39t2.3.47q1.37 0 2.51-.45 1.13-.45 1.92-1.32.79-.86 1.05-2.08h2.52q-.54 2.62-2.67 4.3-2.12 1.67-5.29 1.67m20.07 0q-2.19 0-3.65-.79t-2.16-2.05-.7-2.77q0-1.88.95-3.17.95-1.3 2.68-1.95 1.73-.64 4.03-.64h4.9q0-1.77-.54-2.99-.54-1.23-1.58-1.86-1.05-.63-2.63-.63-1.84 0-3.17.94t-1.66 2.74h-2.62q.21-1.91 1.31-3.21 1.1-1.29 2.72-1.96t3.42-.67q2.52 0 4.1.96 1.59.95 2.38 2.61.79 1.65.79 3.81V112h-2.3l-.15-3.31q-.32.75-.88 1.44-.56.68-1.3 1.19-.73.5-1.71.81-.97.3-2.23.3m.29-2.19q1.33 0 2.39-.56 1.07-.56 1.82-1.46.76-.9 1.15-2.05.4-1.15.4-2.34v-.65h-4.72q-1.9 0-3.06.47-1.15.47-1.65 1.26-.51.79-.51 1.83 0 1.05.49 1.82.49.78 1.42 1.23.94.45 2.27.45m17.55 9.68h-2.52V93.86h2.31l.21 3.27q.58-.97 1.51-1.82.94-.84 2.25-1.36 1.32-.53 3.01-.53 2.63 0 4.59 1.26t3.04 3.41q1.08 2.14 1.08 4.87 0 2.74-1.1 4.88-1.09 2.14-3.04 3.37-1.94 1.22-4.61 1.22-2.3 0-4.05-.99-1.74-.99-2.68-2.79zm6.55-9.68q1.88 0 3.3-.92t2.25-2.54.83-3.85q0-2.2-.83-3.85-.83-1.66-2.25-2.56t-3.3-.9q-1.87 0-3.31.9t-2.27 2.54q-.82 1.64-.82 3.87 0 2.19.82 3.83.83 1.64 2.27 2.56t3.31.92m23.03 2.19q-2.52 0-4.45-1.19-1.92-1.18-3.02-3.33-1.1-2.14-1.1-5.02t1.08-5q1.08-2.13 3.04-3.3t4.52-1.17q2.63 0 4.45 1.19 1.81 1.19 2.77 3.1.95 1.91.95 4.17v.72q0 .4-.03.9h-14.33q.11 2.13.86 3.57.87 1.62 2.29 2.41t2.97.79q2.05 0 3.38-.92 1.33-.91 1.91-2.53h2.48q-.46 1.58-1.49 2.88-1.03 1.29-2.61 2.01t-3.67.72m-6.09-11.05h11.88q-.07-2.77-1.71-4.28-1.63-1.52-4.12-1.52-1.62 0-3 .74-1.39.74-2.22 2.14-.72 1.23-.83 2.92"/><defs><linearGradient id="wml_paint0" x1="20" x2="80" y1="20" y2="75" gradientUnits="userSpaceOnUse"><stop stop-color="#6b5d87"/><stop offset="1" stop-color="#2d7a72"/></linearGradient><linearGradient id="wml_paint1" x1="50" x2="35" y1="20" y2="75" gradientUnits="userSpaceOnUse"><stop stop-color="#0f0f23"/><stop offset="1" stop-color="#6b5d87"/></linearGradient><linearGradient id="wml_paint2" x1="50" x2="65" y1="50" y2="75" gradientUnits="userSpaceOnUse"><stop stop-color="#6b5d87"/><stop offset="1" stop-color="#2d7a72"/></linearGradient><linearGradient id="wml_paint3" x1="20" x2="80" y1="40" y2="40" gradientUnits="userSpaceOnUse"><stop stop-color="#6b5d87"/><stop offset="1" stop-color="#2d7a72"/></linearGradient></defs></svg>