<svg xmlns="http://www.w3.org/2000/svg" viewBox="0 0 100 100" width="512" height="512" fill="none">
  <!-- Connecting Lines -->
  <path d="M50 20 L20 40 L35 75 L65 75 L80 40 Z" stroke="url(#paint0_linear)" stroke-linecap="round" stroke-linejoin="round" stroke-width="2"/>
  <path d="M50 20 L50 50 L35 75" stroke="url(#paint1_linear)" stroke-linecap="round" stroke-width="2"/>
  <path d="M50 50 L65 75" stroke="url(#paint2_linear)" stroke-linecap="round" stroke-width="2"/>
  <path d="M20 40 L50 50 L80 40" stroke="url(#paint3_linear)" stroke-linecap="round" stroke-width="2"/>
  <!-- Dots -->
  <circle cx="50" cy="20" r="5" fill="#e8e4f0"/>
  <circle cx="20" cy="40" r="4" fill="#b9aaca"/>
  <circle cx="80" cy="40" r="4" fill="#7ecbc0"/>
  <circle cx="35" cy="75" r="3" fill="#e8e4f0"/>
  <circle cx="65" cy="75" r="3" fill="#b9aaca"/>
  <circle cx="50" cy="50" r="2.5" fill="#7ecbc0"/>
  <defs>
    <linearGradient id="paint0_linear" gradientUnits="userSpaceOnUse" x1="20" y1="20" x2="80" y2="75">
      <stop stop-color="#b9aaca"/>
      <stop offset="1" stop-color="#7ecbc0"/>
    </linearGradient>
    <linearGradient id="paint1_linear" gradientUnits="userSpaceOnUse" x1="50" y1="20" x2="35" y2="75">
      <stop stop-color="#e8e4f0"/>
      <stop offset="1" stop-color="#b9aaca"/>
    </linearGradient>
    <linearGradient id="paint2_linear" gradientUnits="userSpaceOnUse" x1="50" y1="50" x2="65" y2="75">
      <stop stop-color="#b9aaca"/>
      <stop offset="1" stop-color="#7ecbc0"/>
    </linearGradient>
    <linearGradient id="paint3_linear" gradientUnits="userSpaceOnUse" x1="20" y1="40" x2="80" y2="40">
      <stop stop-color="#b9aaca"/>
      <stop offset="1" stop-color="#7ecbc0"/>
    </linearGradient>
  </defs>
</svg>
