<svg xmlns="http://www.w3.org/2000/svg" width="512" height="512" fill="none" aria-labelledby="title" viewBox="0 0 100 100"><title id="title">Pluralscape icon</title><desc>A constellation of connected nodes representing plural identities</desc><path stroke="url(#paint0_linear)" stroke-linecap="round" stroke-linejoin="round" stroke-width="2" d="M50 20 20 40l15 35h30l15-35Z"/><path stroke="url(#paint1_linear)" stroke-linecap="round" stroke-width="2" d="M50 20v30L35 75"/><path stroke="url(#paint2_linear)" stroke-linecap="round" stroke-width="2" d="m50 50 15 25"/><path stroke="url(#paint3_linear)" stroke-linecap="round" stroke-width="2" d="m20 40 30 10 30-10"/><circle cx="50" cy="20" r="5" fill="#e8e4f0"/><circle cx="20" cy="40" r="4" fill="#b8a9c9"/><circle cx="80" cy="40" r="4" fill="#7ecbc0"/><circle cx="35" cy="75" r="3" fill="#e8e4f0"/><circle cx="65" cy="75" r="3" fill="#b8a9c9"/><circle cx="50" cy="50" r="2.5" fill="#7ecbc0"/><defs><linearGradient id="paint0_linear" x1="20" x2="80" y1="20" y2="75" gradientUnits="userSpaceOnUse"><stop stop-color="#b8a9c9"/><stop offset="1" stop-color="#7ecbc0"/></linearGradient><linearGradient id="paint1_linear" x1="50" x2="35" y1="20" y2="75" gradientUnits="userSpaceOnUse"><stop stop-color="#e8e4f0"/><stop offset="1" stop-color="#b8a9c9"/></linearGradient><linearGradient id="paint2_linear" x1="50" x2="65" y1="50" y2="75" gradientUnits="userSpaceOnUse"><stop stop-color="#b8a9c9"/><stop offset="1" stop-color="#7ecbc0"/></linearGradient><linearGradient id="paint3_linear" x1="20" x2="80" y1="40" y2="40" gradientUnits="userSpaceOnUse"><stop stop-color="#b8a9c9"/><stop offset="1" stop-color="#7ecbc0"/></linearGradient></defs></svg>